<svg xmlns="http://www.w3.org/2000/svg" viewBox="0 0 100 100">
  <defs>
    <clipPath id="tc">
      <path d="&#xA;        M 13,0 L 87,0&#xA;        Q 100,0 100,13&#xA;        L 100,27&#xA;        Q 100,38 88,38&#xA;        L 65.5,38&#xA;        L 65.5,92 Q 65.5,100 57,100 L 43,100 Q 34.5,100 34.5,92&#xA;        L 34.5,38&#xA;        L 12,38&#xA;        Q 0,38 0,27&#xA;        L 0,13&#xA;        Q 0,0 13,0 Z&#xA;      "></path>
    </clipPath>
  </defs>

  
  <path d="&#xA;    M 13,0 L 87,0&#xA;    Q 100,0 100,13&#xA;    L 100,27&#xA;    Q 100,38 88,38&#xA;    L 65.5,38&#xA;    L 65.5,92 Q 65.5,100 57,100 L 43,100 Q 34.5,100 34.5,92&#xA;    L 34.5,38&#xA;    L 12,38&#xA;    Q 0,38 0,27&#xA;    L 0,13&#xA;    Q 0,0 13,0 Z&#xA;  " fill="#7AC8ED"></path>

  
  <path d="&#xA;    M -2,-2&#xA;    L 58,-2&#xA;    C 64,-2 68,6 68,13&#xA;    C 68,22 65,30 61.5,38&#xA;    C 59,44 57,50 54,57&#xA;    C 50,66 46,73 40,82&#xA;    C 37,87 35.5,92 35.5,102&#xA;    L -2,102 Z&#xA;  " fill="#1095D4" clip-path="url(#tc)"></path>

  
  <path d="&#xA;    M 58,-2&#xA;    L 105,-2 L 105,102 L 35.5,102&#xA;    C 35.5,92 37,87 40,82&#xA;    C 46,73 50,66 54,57&#xA;    C 57,50 59,44 61.5,38&#xA;    C 65,30 68,22 68,13&#xA;    C 68,6 64,-2 58,-2 Z&#xA;  " fill="#F57018" clip-path="url(#tc)"></path>

</svg>